<svg width="24" height="24" viewBox="0 0 24 24" fill="none" xmlns="http://www.w3.org/2000/svg">
<path d="M21.6605 8.74998L12.6605 16.75C12.478 16.9103 12.2434 16.9987 12.0005 16.9987C11.7576 16.9987 11.523 16.9103 11.3405 16.75L2.34048 8.74998C2.15465 8.57149 2.04489 8.32815 2.03408 8.07071C2.02328 7.81327 2.11227 7.56159 2.28249 7.36816C2.45271 7.17472 2.69104 7.05446 2.94776 7.03244C3.20449 7.01042 3.45981 7.08836 3.66048 7.24999L12.0005 14.66L20.3405 7.24999C20.4378 7.15648 20.5531 7.08364 20.6794 7.03588C20.8056 6.98812 20.9403 6.96641 21.0751 6.97207C21.21 6.97773 21.3423 7.01064 21.4641 7.06881C21.586 7.12699 21.6947 7.20922 21.7839 7.31056C21.8731 7.4119 21.9408 7.53025 21.983 7.65847C22.0253 7.78669 22.0411 7.92213 22.0295 8.05663C22.018 8.19113 21.9794 8.3219 21.9159 8.44106C21.8525 8.56022 21.7656 8.66531 21.6605 8.74998Z" fill="#5F4BDB"/>
</svg>
