<?xml version="1.0" encoding="iso-8859-1"?>
<!-- Generator: Adobe Illustrator 19.0.0, SVG Export Plug-In . SVG Version: 6.00 Build 0)  -->
<svg version="1.1" id="Layer_1" xmlns="http://www.w3.org/2000/svg" xmlns:xlink="http://www.w3.org/1999/xlink" x="0px" y="0px"
	 viewBox="0 0 512.001 512.001" style="enable-background:new 0 0 512.001 512.001;" xml:space="preserve">
<g>
	<g>
		<path d="M511.999,255.944C511.968,114.891,397.216,0.002,256,0.002C114.954,0.002,0.009,114.73,0.001,255.986
			c0,0.004-0.001,0.01-0.001,0.014c0,0.004,0.001,0.01,0.001,0.014C0.009,397.065,114.748,511.999,256,511.999
			c141.036,0,255.967-114.709,255.998-255.941c0-0.019,0.003-0.038,0.003-0.058C512.001,255.981,511.999,255.963,511.999,255.944z
			 M272.696,34.017c48.847,3.64,93.351,23.112,128.388,53.289l-71.162,71.162c-16.361-12.43-35.929-20.842-57.226-23.759V34.017z
			 M239.306,34.017v100.692h-0.001c-21.297,2.917-40.865,11.328-57.226,23.759l-71.162-71.162
			C145.955,57.13,190.459,37.657,239.306,34.017z M87.306,110.917l71.163,71.162c-12.43,16.361-20.842,35.929-23.759,57.226H34.018
			C37.656,190.458,57.129,145.956,87.306,110.917z M34.018,272.696H134.71c2.917,21.297,11.328,40.865,23.759,57.226l-71.163,71.162
			C57.129,366.047,37.656,321.543,34.018,272.696z M239.304,477.984c-48.847-3.64-93.351-23.112-128.389-53.289l71.163-71.162
			c16.361,12.43,35.929,20.843,57.226,23.759V477.984z M256,345.043c-0.004,0-0.01,0.001-0.014,0.001
			c-49.133-0.008-89.029-40-89.029-89.043c0-49.082,39.938-89.043,89.043-89.043c49.062,0,89.035,39.916,89.043,89.029
			c0,0.004-0.001,0.01-0.001,0.014c0,0.004,0.001,0.01,0.001,0.014c-0.008,49.062-39.925,89.021-89.029,89.029
			C256.01,345.044,256.004,345.043,256,345.043z M272.696,477.984V377.292c21.297-2.917,40.865-11.328,57.226-23.759l71.163,71.163
			C366.046,454.873,321.542,474.345,272.696,477.984z M424.695,401.085l-71.163-71.163c12.43-16.361,20.842-36.04,23.759-57.337
			h100.692C474.345,321.432,454.872,366.047,424.695,401.085z M377.291,239.305c-2.917-21.297-11.328-40.865-23.759-57.226
			l71.163-71.162c30.177,35.038,49.649,79.542,53.289,128.388H377.291z" fill="#fff"/>
	</g>
</g>
<g>
</g>
<g>
</g>
<g>
</g>
<g>
</g>
<g>
</g>
<g>
</g>
<g>
</g>
<g>
</g>
<g>
</g>
<g>
</g>
<g>
</g>
<g>
</g>
<g>
</g>
<g>
</g>
<g>
</g>
</svg>
