<svg width="24" height="24" viewBox="0 0 24 24" fill="none" xmlns="http://www.w3.org/2000/svg">
<path d="M21.7096 20.2901L18.8796 17.4701C20.4138 15.5748 21.1622 13.163 20.9705 10.7321C20.7788 8.30119 19.6617 6.03653 17.8494 4.40507C16.0371 2.77362 13.6679 1.89977 11.2303 1.96373C8.79268 2.02768 6.47255 3.02456 4.74831 4.7488C3.02407 6.47304 2.02719 8.79317 1.96324 11.2308C1.89929 13.6684 2.77313 16.0376 4.40458 17.8499C6.03604 19.6621 8.3007 20.7793 10.7316 20.971C13.1625 21.1627 15.5743 20.4143 17.4696 18.8801L20.2896 21.7101C20.3826 21.8038 20.4932 21.8782 20.615 21.929C20.7369 21.9798 20.8676 22.0059 20.9996 22.0059C21.1316 22.0059 21.2623 21.9798 21.3842 21.929C21.506 21.8782 21.6166 21.8038 21.7096 21.7101C21.8033 21.6171 21.8777 21.5065 21.9285 21.3847C21.9793 21.2628 22.0054 21.1321 22.0054 21.0001C22.0054 20.8681 21.9793 20.7374 21.9285 20.6155C21.8777 20.4937 21.8033 20.3831 21.7096 20.2901ZM3.9996 11.5001C3.9996 10.0167 4.43947 8.56668 5.26358 7.33331C6.08769 6.09995 7.25903 5.13865 8.62948 4.57099C9.99992 4.00334 11.5079 3.85481 12.9628 4.1442C14.4176 4.43359 15.754 5.1479 16.8029 6.19679C17.8518 7.24568 18.5661 8.58206 18.8555 10.0369C19.1449 11.4918 18.9964 12.9998 18.4287 14.3702C17.861 15.7407 16.8997 16.912 15.6664 17.7361C14.433 18.5602 12.983 19.0001 11.4996 19.0001C9.51048 19.0001 7.60282 18.2099 6.1963 16.8034C4.78978 15.3969 3.9996 13.4892 3.9996 11.5001Z" fill="#646464"/>
</svg>
